# This file uses centimeters as units for non-parametric coordinates.

mtllib SmoothRock3.mtl
g default
v -4.170846 2.111827 4.109357
v 4.739973 2.288280 4.120335
v -4.216755 6.845101 3.609848
v 3.643021 7.182710 4.109357
v -4.584107 7.409424 -2.561687
v 5.153418 7.443944 -2.696781
v -4.221095 2.721653 -2.291521
v 3.439706 2.570045 -2.545383
v 4.771718 4.838187 5.277997
v -0.326135 7.290281 4.650817
v -5.277907 7.940519 0.668180
v 4.888787 7.918170 0.750173
v -0.082714 8.296487 -4.363800
v -5.315306 4.839382 -3.418976
v 4.806620 4.759698 -4.018811
v -0.385553 2.372961 -3.429965
v -5.051935 1.751953 0.780721
v 4.749698 1.694620 0.726072
v -0.075017 1.720139 5.277997
v -5.074685 4.775863 4.650817
v -0.364288 5.029513 7.565346
v -0.251020 8.773191 0.544893
v -0.482872 4.444674 -7.517748
v -0.235252 1.070139 0.805062
v 4.515725 4.466300 0.708666
v -5.884841 4.884335 0.704109
v -0.210460 3.273705 6.954789
v -3.098523 4.903914 6.536670
v 3.038269 1.911779 4.821302
v 5.225925 3.304620 4.821302
v 2.633685 4.994304 6.954790
v -0.375003 6.306258 6.536670
v 4.238668 6.300095 4.903377
v 2.051012 7.386979 4.574966
v -4.808872 6.014014 4.217363
v -2.666569 7.057478 4.217363
v -4.879784 7.429369 2.370915
v -0.301220 8.167927 2.689848
v -3.158930 8.604012 0.586259
v 4.253835 7.683288 2.728518
v 2.786806 8.636731 0.640921
v -0.126304 8.940066 -1.892916
v 5.618371 7.788027 -1.110466
v 3.401237 8.000762 -3.639430
v -5.181119 7.806887 -1.080837
v -2.982217 7.944040 -3.609800
v -5.206051 6.290198 -3.071991
v -0.275897 6.470389 -6.607975
v -3.308523 4.603705 -6.012992
v 5.593440 6.303499 -3.430031
v 2.607367 4.599422 -6.412883
v -0.480659 3.202247 -5.985419
v 4.049825 3.392597 -3.444360
v 1.862169 2.374082 -3.115949
v -4.904716 3.554556 -2.979428
v -2.676334 2.492621 -2.979428
v -4.793705 2.189530 -0.988274
v -0.313850 1.586672 -1.270360
v -3.007524 1.163969 0.805656
v 4.074757 2.023073 -1.124795
v 2.694838 1.173365 0.769224
v -0.119461 1.050123 3.107968
v 5.241091 1.833762 2.646443
v -4.776489 1.704964 2.728518
v 4.896283 2.854878 0.703541
v 4.926129 4.601066 3.107968
v 4.959314 4.617250 -1.655944
v 4.989161 6.341045 0.748483
v -5.798440 3.131191 0.739974
v -5.948937 4.914574 -1.256054
v -5.798440 4.803717 2.689848
v -5.948937 6.594035 0.693821
v -2.649353 1.735064 4.903377
v -4.791656 3.171325 4.574966
v -2.881521 3.222464 6.179161
v 2.910665 3.343272 6.343385
v 2.252494 6.333047 6.179161
v -2.881521 6.106692 5.721819
v -2.889719 7.982953 2.506055
v 2.313160 8.183578 2.700669
v 3.219820 8.660323 -1.519627
v -3.082163 8.641551 -1.543662
v -3.181892 6.359952 -5.338251
v 3.120091 6.404453 -5.576945
v 2.094047 3.313692 -5.227957
v -2.989447 3.389720 -4.918003
v -2.820855 1.687033 -1.123414
v 2.193775 1.607408 -1.170640
v 2.971331 1.231649 2.864893
v -2.820855 1.114439 2.963397
v 5.479389 3.031204 2.864893
v 4.701832 3.107501 -1.433368
v 5.731515 6.308881 -1.352108
v 4.821218 6.320439 2.963397
v -5.698864 3.375200 -1.123414
v -5.630000 3.102067 2.700669
v -5.698864 6.307887 2.506055
v -5.956533 6.478182 -1.113414
vt 0.375000 0.000000
vt 0.437500 0.000000
vt 0.437500 0.062500
vt 0.375000 0.062500
vt 0.437500 0.000000
vt 0.500000 0.000000
vt 0.500000 0.062500
vt 0.437500 0.062500
vt 0.437500 0.062500
vt 0.500000 0.062500
vt 0.500000 0.125000
vt 0.437500 0.125000
vt 0.375000 0.062500
vt 0.437500 0.062500
vt 0.437500 0.125000
vt 0.375000 0.125000
vt 0.500000 0.000000
vt 0.562500 0.000000
vt 0.562500 0.062500
vt 0.500000 0.062500
vt 0.562500 0.000000
vt 0.625000 0.000000
vt 0.625000 0.062500
vt 0.562500 0.062500
vt 0.562500 0.062500
vt 0.625000 0.062500
vt 0.625000 0.125000
vt 0.562500 0.125000
vt 0.500000 0.062500
vt 0.562500 0.062500
vt 0.562500 0.125000
vt 0.500000 0.125000
vt 0.500000 0.125000
vt 0.562500 0.125000
vt 0.562500 0.187500
vt 0.500000 0.187500
vt 0.562500 0.125000
vt 0.625000 0.125000
vt 0.625000 0.187500
vt 0.562500 0.187500
vt 0.562500 0.187500
vt 0.625000 0.187500
vt 0.625000 0.250000
vt 0.562500 0.250000
vt 0.500000 0.187500
vt 0.562500 0.187500
vt 0.562500 0.250000
vt 0.500000 0.250000
vt 0.375000 0.125000
vt 0.437500 0.125000
vt 0.437500 0.187500
vt 0.375000 0.187500
vt 0.437500 0.125000
vt 0.500000 0.125000
vt 0.500000 0.187500
vt 0.437500 0.187500
vt 0.437500 0.187500
vt 0.500000 0.187500
vt 0.500000 0.250000
vt 0.437500 0.250000
vt 0.375000 0.187500
vt 0.437500 0.187500
vt 0.437500 0.250000
vt 0.375000 0.250000
vt 0.375000 0.250000
vt 0.437500 0.250000
vt 0.437500 0.312500
vt 0.375000 0.312500
vt 0.437500 0.250000
vt 0.500000 0.250000
vt 0.500000 0.312500
vt 0.437500 0.312500
vt 0.437500 0.312500
vt 0.500000 0.312500
vt 0.500000 0.375000
vt 0.437500 0.375000
vt 0.375000 0.312500
vt 0.437500 0.312500
vt 0.437500 0.375000
vt 0.375000 0.375000
vt 0.500000 0.250000
vt 0.562500 0.250000
vt 0.562500 0.312500
vt 0.500000 0.312500
vt 0.562500 0.250000
vt 0.625000 0.250000
vt 0.625000 0.312500
vt 0.562500 0.312500
vt 0.562500 0.312500
vt 0.625000 0.312500
vt 0.625000 0.375000
vt 0.562500 0.375000
vt 0.500000 0.312500
vt 0.562500 0.312500
vt 0.562500 0.375000
vt 0.500000 0.375000
vt 0.500000 0.375000
vt 0.562500 0.375000
vt 0.562500 0.437500
vt 0.500000 0.437500
vt 0.562500 0.375000
vt 0.625000 0.375000
vt 0.625000 0.437500
vt 0.562500 0.437500
vt 0.562500 0.437500
vt 0.625000 0.437500
vt 0.625000 0.500000
vt 0.562500 0.500000
vt 0.500000 0.437500
vt 0.562500 0.437500
vt 0.562500 0.500000
vt 0.500000 0.500000
vt 0.375000 0.375000
vt 0.437500 0.375000
vt 0.437500 0.437500
vt 0.375000 0.437500
vt 0.437500 0.375000
vt 0.500000 0.375000
vt 0.500000 0.437500
vt 0.437500 0.437500
vt 0.437500 0.437500
vt 0.500000 0.437500
vt 0.500000 0.500000
vt 0.437500 0.500000
vt 0.375000 0.437500
vt 0.437500 0.437500
vt 0.437500 0.500000
vt 0.375000 0.500000
vt 0.375000 0.500000
vt 0.437500 0.500000
vt 0.437500 0.562500
vt 0.375000 0.562500
vt 0.437500 0.500000
vt 0.500000 0.500000
vt 0.500000 0.562500
vt 0.437500 0.562500
vt 0.437500 0.562500
vt 0.500000 0.562500
vt 0.500000 0.625000
vt 0.437500 0.625000
vt 0.375000 0.562500
vt 0.437500 0.562500
vt 0.437500 0.625000
vt 0.375000 0.625000
vt 0.500000 0.500000
vt 0.562500 0.500000
vt 0.562500 0.562500
vt 0.500000 0.562500
vt 0.562500 0.500000
vt 0.625000 0.500000
vt 0.625000 0.562500
vt 0.562500 0.562500
vt 0.562500 0.562500
vt 0.625000 0.562500
vt 0.625000 0.625000
vt 0.562500 0.625000
vt 0.500000 0.562500
vt 0.562500 0.562500
vt 0.562500 0.625000
vt 0.500000 0.625000
vt 0.500000 0.625000
vt 0.562500 0.625000
vt 0.562500 0.687500
vt 0.500000 0.687500
vt 0.562500 0.625000
vt 0.625000 0.625000
vt 0.625000 0.687500
vt 0.562500 0.687500
vt 0.562500 0.687500
vt 0.625000 0.687500
vt 0.625000 0.750000
vt 0.562500 0.750000
vt 0.500000 0.687500
vt 0.562500 0.687500
vt 0.562500 0.750000
vt 0.500000 0.750000
vt 0.375000 0.625000
vt 0.437500 0.625000
vt 0.437500 0.687500
vt 0.375000 0.687500
vt 0.437500 0.625000
vt 0.500000 0.625000
vt 0.500000 0.687500
vt 0.437500 0.687500
vt 0.437500 0.687500
vt 0.500000 0.687500
vt 0.500000 0.750000
vt 0.437500 0.750000
vt 0.375000 0.687500
vt 0.437500 0.687500
vt 0.437500 0.750000
vt 0.375000 0.750000
vt 0.375000 0.750000
vt 0.437500 0.750000
vt 0.437500 0.812500
vt 0.375000 0.812500
vt 0.437500 0.750000
vt 0.500000 0.750000
vt 0.500000 0.812500
vt 0.437500 0.812500
vt 0.437500 0.812500
vt 0.500000 0.812500
vt 0.500000 0.875000
vt 0.437500 0.875000
vt 0.375000 0.812500
vt 0.437500 0.812500
vt 0.437500 0.875000
vt 0.375000 0.875000
vt 0.500000 0.750000
vt 0.562500 0.750000
vt 0.562500 0.812500
vt 0.500000 0.812500
vt 0.562500 0.750000
vt 0.625000 0.750000
vt 0.625000 0.812500
vt 0.562500 0.812500
vt 0.562500 0.812500
vt 0.625000 0.812500
vt 0.625000 0.875000
vt 0.562500 0.875000
vt 0.500000 0.812500
vt 0.562500 0.812500
vt 0.562500 0.875000
vt 0.500000 0.875000
vt 0.500000 0.875000
vt 0.562500 0.875000
vt 0.562500 0.937500
vt 0.500000 0.937500
vt 0.562500 0.875000
vt 0.625000 0.875000
vt 0.625000 0.937500
vt 0.562500 0.937500
vt 0.562500 0.937500
vt 0.625000 0.937500
vt 0.625000 1.000000
vt 0.562500 1.000000
vt 0.500000 0.937500
vt 0.562500 0.937500
vt 0.562500 1.000000
vt 0.500000 1.000000
vt 0.375000 0.875000
vt 0.437500 0.875000
vt 0.437500 0.937500
vt 0.375000 0.937500
vt 0.437500 0.875000
vt 0.500000 0.875000
vt 0.500000 0.937500
vt 0.437500 0.937500
vt 0.437500 0.937500
vt 0.500000 0.937500
vt 0.500000 1.000000
vt 0.437500 1.000000
vt 0.375000 0.937500
vt 0.437500 0.937500
vt 0.437500 1.000000
vt 0.375000 1.000000
vt 0.625000 0.000000
vt 0.687500 0.000000
vt 0.687500 0.062500
vt 0.625000 0.062500
vt 0.687500 0.000000
vt 0.750000 0.000000
vt 0.750000 0.062500
vt 0.687500 0.062500
vt 0.687500 0.062500
vt 0.750000 0.062500
vt 0.750000 0.125000
vt 0.687500 0.125000
vt 0.625000 0.062500
vt 0.687500 0.062500
vt 0.687500 0.125000
vt 0.625000 0.125000
vt 0.750000 0.000000
vt 0.812500 0.000000
vt 0.812500 0.062500
vt 0.750000 0.062500
vt 0.812500 0.000000
vt 0.875000 0.000000
vt 0.875000 0.062500
vt 0.812500 0.062500
vt 0.812500 0.062500
vt 0.875000 0.062500
vt 0.875000 0.125000
vt 0.812500 0.125000
vt 0.750000 0.062500
vt 0.812500 0.062500
vt 0.812500 0.125000
vt 0.750000 0.125000
vt 0.750000 0.125000
vt 0.812500 0.125000
vt 0.812500 0.187500
vt 0.750000 0.187500
vt 0.812500 0.125000
vt 0.875000 0.125000
vt 0.875000 0.187500
vt 0.812500 0.187500
vt 0.812500 0.187500
vt 0.875000 0.187500
vt 0.875000 0.250000
vt 0.812500 0.250000
vt 0.750000 0.187500
vt 0.812500 0.187500
vt 0.812500 0.250000
vt 0.750000 0.250000
vt 0.625000 0.125000
vt 0.687500 0.125000
vt 0.687500 0.187500
vt 0.625000 0.187500
vt 0.687500 0.125000
vt 0.750000 0.125000
vt 0.750000 0.187500
vt 0.687500 0.187500
vt 0.687500 0.187500
vt 0.750000 0.187500
vt 0.750000 0.250000
vt 0.687500 0.250000
vt 0.625000 0.187500
vt 0.687500 0.187500
vt 0.687500 0.250000
vt 0.625000 0.250000
vt 0.125000 0.000000
vt 0.187500 0.000000
vt 0.187500 0.062500
vt 0.125000 0.062500
vt 0.187500 0.000000
vt 0.250000 0.000000
vt 0.250000 0.062500
vt 0.187500 0.062500
vt 0.187500 0.062500
vt 0.250000 0.062500
vt 0.250000 0.125000
vt 0.187500 0.125000
vt 0.125000 0.062500
vt 0.187500 0.062500
vt 0.187500 0.125000
vt 0.125000 0.125000
vt 0.250000 0.000000
vt 0.312500 0.000000
vt 0.312500 0.062500
vt 0.250000 0.062500
vt 0.312500 0.000000
vt 0.375000 0.000000
vt 0.375000 0.062500
vt 0.312500 0.062500
vt 0.312500 0.062500
vt 0.375000 0.062500
vt 0.375000 0.125000
vt 0.312500 0.125000
vt 0.250000 0.062500
vt 0.312500 0.062500
vt 0.312500 0.125000
vt 0.250000 0.125000
vt 0.250000 0.125000
vt 0.312500 0.125000
vt 0.312500 0.187500
vt 0.250000 0.187500
vt 0.312500 0.125000
vt 0.375000 0.125000
vt 0.375000 0.187500
vt 0.312500 0.187500
vt 0.312500 0.187500
vt 0.375000 0.187500
vt 0.375000 0.250000
vt 0.312500 0.250000
vt 0.250000 0.187500
vt 0.312500 0.187500
vt 0.312500 0.250000
vt 0.250000 0.250000
vt 0.125000 0.125000
vt 0.187500 0.125000
vt 0.187500 0.187500
vt 0.125000 0.187500
vt 0.187500 0.125000
vt 0.250000 0.125000
vt 0.250000 0.187500
vt 0.187500 0.187500
vt 0.187500 0.187500
vt 0.250000 0.187500
vt 0.250000 0.250000
vt 0.187500 0.250000
vt 0.125000 0.187500
vt 0.187500 0.187500
vt 0.187500 0.250000
vt 0.125000 0.250000
vn -0.523053 -0.703606 0.480993
vn -0.210659 -0.826685 0.521742
vn -0.382313 -0.465643 0.798131
vn -0.732666 -0.343324 0.587647
vn 0.023923 -0.848386 0.528837
vn -0.012926 -0.529514 0.848202
vn -0.066257 0.108556 0.991880
vn -0.488225 0.110209 0.865731
vn -0.793999 0.066462 0.604276
vn 0.210575 -0.834279 0.509545
vn 0.317913 -0.487911 0.812942
vn 0.496403 -0.736134 0.460099
vn 0.815659 -0.204122 0.541327
vn 0.793443 0.173986 0.583247
vn 0.359060 0.108819 0.926949
vn 0.234824 0.696552 0.677992
vn -0.083407 0.742760 0.664342
vn 0.687129 0.523010 0.504296
vn 0.416593 0.787413 0.454347
vn 0.097245 0.879896 0.465110
vn -0.079662 0.885320 0.458108
vn -0.365360 0.690739 0.624012
vn -0.662519 0.507670 0.550762
vn -0.222114 0.850779 0.476277
vn -0.400980 0.760869 0.510190
vn -0.165698 0.910763 0.378225
vn -0.486438 0.779145 0.395362
vn -0.047630 0.938754 0.341280
vn -0.014626 0.989105 0.146482
vn -0.174723 0.972944 0.151165
vn -0.557443 0.819440 0.133324
vn 0.098831 0.944407 0.313571
vn 0.573547 0.758852 0.308525
vn 0.640429 0.736681 0.217144
vn 0.148219 0.979082 0.139391
vn 0.197183 0.974211 -0.109685
vn -0.004872 0.991033 -0.133527
vn 0.723362 0.689773 0.030984
vn 0.608059 0.687813 -0.396456
vn 0.282476 0.836358 -0.469801
vn -0.006803 0.866984 -0.498289
vn -0.219591 0.964820 -0.144574
vn -0.597866 0.780065 -0.184541
vn -0.326677 0.822096 -0.466306
vn -0.583538 0.687166 -0.432766
vn -0.479617 0.538986 -0.692432
vn -0.781497 0.365686 -0.505506
vn -0.027886 0.598745 -0.800454
vn -0.060169 -0.133720 -0.989191
vn -0.588358 -0.112892 -0.800681
vn -0.842346 -0.093037 -0.530846
vn 0.415230 0.501732 -0.758847
vn 0.866704 0.124726 -0.482978
vn 0.796656 -0.302806 -0.523114
vn 0.470577 -0.176965 -0.864430
vn 0.308007 -0.806275 -0.505028
vn -0.041860 -0.848970 -0.526780
vn 0.634799 -0.651506 -0.415414
vn 0.379482 -0.828372 -0.412060
vn 0.147757 -0.915341 -0.374591
vn -0.029821 -0.934529 -0.354636
vn -0.392670 -0.777027 -0.491975
vn -0.683889 -0.577734 -0.445554
vn -0.206370 -0.903473 -0.375697
vn -0.416292 -0.807004 -0.418862
vn -0.144177 -0.935770 -0.321787
vn -0.498875 -0.804940 -0.321240
vn -0.017303 -0.952733 -0.303317
vn 0.001855 -0.993323 -0.115348
vn -0.141150 -0.981827 -0.126856
vn -0.563294 -0.820952 -0.093477
vn 0.104217 -0.946715 -0.304746
vn 0.481027 -0.810430 -0.334391
vn 0.555585 -0.813180 -0.173390
vn 0.123201 -0.986305 -0.109652
vn 0.150853 -0.976058 0.156700
vn 0.021239 -0.987489 0.156248
vn 0.622098 -0.779749 0.070613
vn -0.141541 -0.979276 0.144862
vn -0.562654 -0.806163 0.183090
vn 0.995428 0.074556 -0.059709
vn 0.986307 -0.001558 -0.164913
vn 0.999361 -0.034985 0.007346
vn 0.985042 0.171596 -0.015742
vn 0.937713 -0.302754 -0.170397
vn 0.952257 -0.305231 0.006318
vn 0.980319 -0.169850 0.100627
vn 0.981105 -0.074546 0.178538
vn 0.973515 0.181323 0.139251
vn -0.900093 -0.373531 -0.224292
vn -0.952120 -0.305576 -0.009505
vn -0.998170 -0.046315 0.038871
vn -0.981390 -0.077088 -0.175870
vn -0.927745 -0.294790 0.228885
vn -0.971196 -0.002523 0.238268
vn -0.901247 0.311437 0.301265
vn -0.964224 0.251952 0.082414
vn -0.950888 0.249464 -0.183250
s 1
g pCube1
usemtl blinn2SG
f 1/1/1 73/5/2 75/14/3 74/343/4
f 73/5/2 19/17/5 27/29/6 75/14/3
f 75/14/3 27/29/6 21/54/7 28/50/8
f 74/343/4 75/14/3 28/50/8 20/347/9
f 19/17/5 29/21/10 76/30/11 27/29/6
f 29/21/10 2/257/12 30/269/13 76/30/11
f 76/30/11 30/269/13 9/305/14 31/34/15
f 27/29/6 76/30/11 31/34/15 21/54/7
f 21/54/7 31/34/15 77/46/16 32/55/17
f 31/34/15 9/305/14 33/317/18 77/46/16
f 77/46/16 33/317/18 4/86/19 34/82/20
f 32/55/17 77/46/16 34/82/20 10/70/21
f 20/347/9 28/50/8 78/62/22 35/359/23
f 28/50/8 21/54/7 32/55/17 78/62/22
f 78/62/22 32/55/17 10/70/21 36/66/24
f 35/359/23 78/62/22 36/66/24 3/363/25
f 3/363/25 36/66/24 79/78/26 37/68/27
f 36/66/24 10/70/21 38/93/28 79/78/26
f 79/78/26 38/93/28 22/118/29 39/114/30
f 37/68/27 79/78/26 39/114/30 11/80/31
f 10/70/21 34/82/20 80/94/32 38/93/28
f 34/82/20 4/86/19 40/90/33 80/94/32
f 80/94/32 40/90/33 12/102/34 41/98/35
f 38/93/28 80/94/32 41/98/35 22/118/29
f 22/118/29 41/98/35 81/110/36 42/119/37
f 41/98/35 12/102/34 43/106/38 81/110/36
f 81/110/36 43/106/38 6/150/39 44/146/40
f 42/119/37 81/110/36 44/146/40 13/134/41
f 11/80/31 39/114/30 82/126/42 45/116/43
f 39/114/30 22/118/29 42/119/37 82/126/42
f 82/126/42 42/119/37 13/134/41 46/130/44
f 45/116/43 82/126/42 46/130/44 5/128/45
f 5/128/45 46/130/44 83/142/46 47/132/47
f 46/130/44 13/134/41 48/157/48 83/142/46
f 83/142/46 48/157/48 23/182/49 49/178/50
f 47/132/47 83/142/46 49/178/50 14/144/51
f 13/134/41 44/146/40 84/158/52 48/157/48
f 44/146/40 6/150/39 50/154/53 84/158/52
f 84/158/52 50/154/53 15/166/54 51/162/55
f 48/157/48 84/158/52 51/162/55 23/182/49
f 23/182/49 51/162/55 85/174/56 52/183/57
f 51/162/55 15/166/54 53/170/58 85/174/56
f 85/174/56 53/170/58 8/214/59 54/210/60
f 52/183/57 85/174/56 54/210/60 16/198/61
f 14/144/51 49/178/50 86/190/62 55/180/63
f 49/178/50 23/182/49 52/183/57 86/190/62
f 86/190/62 52/183/57 16/198/61 56/194/64
f 55/180/63 86/190/62 56/194/64 7/192/65
f 7/192/65 56/194/64 87/206/66 57/196/67
f 56/194/64 16/198/61 58/221/68 87/206/66
f 87/206/66 58/221/68 24/246/69 59/242/70
f 57/196/67 87/206/66 59/242/70 17/208/71
f 16/198/61 54/210/60 88/222/72 58/221/68
f 54/210/60 8/214/59 60/218/73 88/222/72
f 88/222/72 60/218/73 18/230/74 61/226/75
f 58/221/68 88/222/72 61/226/75 24/246/69
f 24/246/69 61/226/75 89/238/76 62/247/77
f 61/226/75 18/230/74 63/234/78 89/238/76
f 89/238/76 63/234/78 2/235/12 29/236/10
f 62/247/77 89/238/76 29/236/10 19/240/5
f 17/208/71 59/242/70 90/254/79 64/244/80
f 59/242/70 24/246/69 62/247/77 90/254/79
f 90/254/79 62/247/77 19/240/5 73/252/2
f 64/244/80 90/254/79 73/252/2 1/256/1
f 2/257/12 63/258/78 91/270/81 30/269/13
f 63/258/78 18/262/74 65/285/82 91/270/81
f 91/270/81 65/285/82 25/310/83 66/306/84
f 30/269/13 91/270/81 66/306/84 9/305/14
f 18/262/74 60/274/73 92/286/85 65/285/82
f 60/274/73 8/278/59 53/279/58 92/286/85
f 92/286/85 53/279/58 15/283/54 67/290/86
f 65/285/82 92/286/85 67/290/86 25/310/83
f 25/310/83 67/290/86 93/302/87 68/311/88
f 67/290/86 15/283/54 50/295/53 93/302/87
f 93/302/87 50/295/53 6/299/39 43/300/38
f 68/311/88 93/302/87 43/300/38 12/304/34
f 9/305/14 66/306/84 94/318/89 33/317/18
f 66/306/84 25/310/83 68/311/88 94/318/89
f 94/318/89 68/311/88 12/304/34 40/316/33
f 33/317/18 94/318/89 40/316/33 4/86/19
f 7/321/65 57/322/67 95/334/90 55/333/63
f 57/322/67 17/326/71 69/349/91 95/334/90
f 95/334/90 69/349/91 26/374/92 70/370/93
f 55/333/63 95/334/90 70/370/93 14/369/51
f 17/326/71 64/338/80 96/350/94 69/349/91
f 64/338/80 1/1/1 74/343/4 96/350/94
f 96/350/94 74/343/4 20/347/9 71/354/95
f 69/349/91 96/350/94 71/354/95 26/374/92
f 26/374/92 71/354/95 97/366/96 72/375/97
f 71/354/95 20/347/9 35/359/23 97/366/96
f 97/366/96 35/359/23 3/363/25 37/364/27
f 72/375/97 97/366/96 37/364/27 11/368/31
f 14/369/51 70/370/93 98/382/98 47/381/47
f 70/370/93 26/374/92 72/375/97 98/382/98
f 98/382/98 72/375/97 11/368/31 45/380/43
f 47/381/47 98/382/98 45/380/43 5/384/45
